<?xml version="1.0" encoding="UTF-8"?><svg id="Toms_Art_-_Nothing_you_could_do" xmlns="http://www.w3.org/2000/svg" viewBox="0 0 513.26 908.4"><defs><style>.cls-1{stroke:#000;stroke-miterlimit:10;stroke-width:4px;}</style></defs><g id="TA_-_Favicon"><path class="cls-1" d="m169.5,493.89c-.69-2.86-.66-6.16.09-9.88.74-3.72,1.8-7.48,3.18-11.26,1.37-3.78,2.86-7.42,4.47-10.91,1.6-3.49,2.92-6.39,3.95-8.68.57-1.37,1.46-3.38,2.66-6.01,1.2-2.63,2.58-5.61,4.12-8.94,1.55-3.32,3.15-6.81,4.81-10.48,1.66-3.67,3.27-7.16,4.81-10.48,1.55-3.32,2.92-6.27,4.12-8.85,1.2-2.58,2.09-4.5,2.66-5.76-1.95-.34-4.73-.17-8.33.52-3.61.69-7.59,1.58-11.94,2.66-4.36,1.09-8.82,2.21-13.4,3.35-4.58,1.15-8.85,1.98-12.8,2.49-3.95.51-7.33.57-10.14.17-2.81-.4-4.55-1.57-5.24-3.52.8-1.49,3.72-3.21,8.76-5.16,5.04-1.95,11.48-3.98,19.33-6.1,7.85-2.12,16.61-4.27,26.29-6.44,9.68-2.17,19.56-4.24,29.64-6.19,10.08-1.95,19.93-3.72,29.56-5.33,9.62-1.6,18.22-2.92,25.78-3.95s13.66-1.72,18.3-2.06,7.07-.23,7.3.34c.34.92.4,2.04.17,3.35-.23,1.32-.97,2.15-2.23,2.49-5.61.92-11.69,1.92-18.22,3.01-6.53,1.09-13.15,2.23-19.85,3.44-6.7,1.2-13.26,2.41-19.68,3.61-6.42,1.2-12.37,2.38-17.87,3.52-3.55.69-6.99,2.75-10.31,6.19-3.32,3.44-6.53,7.71-9.62,12.8-3.09,5.1-6.07,10.77-8.94,17.01-2.87,6.25-5.58,12.57-8.16,18.99-2.58,6.42-4.96,12.6-7.13,18.56-2.18,5.96-4.18,11.2-6.01,15.72-1.83,4.53-3.44,8.05-4.81,10.57-1.38,2.52-2.52,3.55-3.44,3.09-.23-.23-.58-.57-1.03-1.03-.46-.46-.75-.74-.86-.86Z"/><path class="cls-1" d="m218.57,527.58c-.34-.23-.89-.77-1.63-1.63-.74-.86-1.35-1.75-1.8-2.66-.46-.92-.66-1.72-.6-2.41.06-.69.72-1.03,1.98-1.03,2.41,3.32,5.79,4.58,10.14,3.78,4.36-.8,9.05-2.78,14.09-5.93,5.04-3.15,10.17-7.1,15.38-11.86,5.21-4.75,9.91-9.48,14.09-14.18,4.18-4.7,7.62-8.94,10.31-12.72,2.69-3.78,4.04-6.3,4.04-7.56,0-.34-.46-.89-1.37-1.63-.92-.74-1.98-1.52-3.18-2.32-1.2-.8-2.32-1.55-3.35-2.23-1.03-.69-1.66-1.2-1.89-1.55.34-1.14,1.43-2.03,3.26-2.66,1.83-.63,3.89-1.2,6.19-1.72,2.29-.52,4.55-1.03,6.79-1.55,2.23-.51,3.92-1.17,5.07-1.98,6.07-8.82,11.37-16.75,15.9-23.8,4.52-7.05,8.82-13.98,12.89-20.79,4.07-6.82,8.22-13.83,12.46-21.05,4.24-7.22,9.11-15.35,14.61-24.4,1.49-2.52,2.69-3.38,3.61-2.58.92.8,1.6,2.75,2.06,5.84.46,3.09.74,7.02.86,11.77.11,4.75.11,9.88,0,15.38-.12,5.5-.32,11.11-.6,16.84-.29,5.73-.58,11-.86,15.81-.29,4.81-.52,8.96-.69,12.46-.17,3.5-.2,5.76-.09,6.79.46,5.84.77,10.91.95,15.21.17,4.3.71,8.25,1.63,11.86.92,3.61,2.49,7.1,4.73,10.48,2.23,3.38,5.64,7.08,10.22,11.08-3.78,1.26-6.9,1.17-9.37-.26-2.46-1.43-4.47-3.61-6.01-6.53-1.55-2.92-2.81-6.3-3.78-10.14-.97-3.84-1.89-7.56-2.75-11.17-.86-3.61-1.83-6.76-2.92-9.45-1.09-2.69-2.55-4.44-4.38-5.24-.12,0-.43-.03-.95-.09-.52-.06-1.09-.09-1.72-.09s-1.23.03-1.8.09c-.58.06-.97.09-1.2.09-1.03.23-2.95.69-5.76,1.38-2.81.69-5.87,1.43-9.19,2.23-3.32.8-6.5,1.61-9.54,2.41-3.04.8-5.24,1.38-6.62,1.72-2.86.8-5.87,2.64-9.02,5.5-3.15,2.87-6.47,6.33-9.97,10.4-3.5,4.07-7.11,8.51-10.83,13.32-3.72,4.81-7.53,9.51-11.43,14.09-3.9,4.58-7.85,8.82-11.86,12.72-4.01,3.89-8.02,7.05-12.03,9.45-4.01,2.41-8.05,3.75-12.12,4.04-4.06.28-8.05-.89-11.94-3.52Zm93.14-75.61c.23.12.83.17,1.8.17s1.63-.06,1.98-.17c2.06-.34,4.64-.74,7.73-1.2,3.09-.46,6.19-1,9.28-1.63,3.09-.63,5.96-1.38,8.59-2.23,2.63-.86,4.47-1.8,5.5-2.84.69-4.81,1.26-9.08,1.72-12.8.46-3.72.95-7.85,1.46-12.37.52-4.52,1-8.96,1.46-13.32.46-4.35.83-8.39,1.12-12.12.28-3.72.49-6.62.6-8.68-1.26-.57-2.92.89-4.98,4.38-2.06,3.5-4.73,8.28-7.99,14.35-3.27,6.07-7.22,13.15-11.86,21.22-4.64,8.08-10.11,16.47-16.41,25.18v2.06Z"/></g></svg>