<?xml version="1.0" encoding="UTF-8"?><svg id="Toms_Art_-_Nothing_you_could_do" xmlns="http://www.w3.org/2000/svg" viewBox="0 0 793.69 908.4"><defs><style>.cls-1{stroke:#000;stroke-miterlimit:10;stroke-width:4px;}</style></defs><path class="cls-1" d="m32.07,493.89c-.69-2.86-.66-6.16.09-9.88.74-3.72,1.8-7.48,3.18-11.26,1.37-3.78,2.86-7.42,4.47-10.91,1.6-3.49,2.92-6.39,3.95-8.68.57-1.37,1.46-3.38,2.66-6.01,1.2-2.63,2.58-5.61,4.12-8.94,1.55-3.32,3.15-6.81,4.81-10.48,1.66-3.67,3.27-7.16,4.81-10.48,1.55-3.32,2.92-6.27,4.12-8.85,1.2-2.58,2.09-4.5,2.66-5.76-1.95-.34-4.73-.17-8.33.52-3.61.69-7.59,1.58-11.94,2.66-4.36,1.09-8.82,2.21-13.4,3.35-4.58,1.15-8.85,1.98-12.8,2.49-3.95.51-7.33.57-10.14.17-2.81-.4-4.55-1.57-5.24-3.52.8-1.49,3.72-3.21,8.76-5.16,5.04-1.95,11.48-3.98,19.33-6.1,7.85-2.12,16.61-4.27,26.29-6.44,9.68-2.17,19.56-4.24,29.64-6.19,10.08-1.95,19.93-3.72,29.56-5.33,9.62-1.6,18.22-2.92,25.78-3.95s13.66-1.72,18.3-2.06,7.07-.23,7.3.34c.34.92.4,2.04.17,3.35-.23,1.32-.97,2.15-2.23,2.49-5.61.92-11.69,1.92-18.22,3.01-6.53,1.09-13.15,2.23-19.85,3.44-6.7,1.2-13.26,2.41-19.68,3.61-6.42,1.2-12.37,2.38-17.87,3.52-3.55.69-6.99,2.75-10.31,6.19-3.32,3.44-6.53,7.71-9.62,12.8-3.09,5.1-6.07,10.77-8.94,17.01-2.87,6.25-5.58,12.57-8.16,18.99-2.58,6.42-4.96,12.6-7.13,18.56-2.18,5.96-4.18,11.2-6.01,15.72-1.83,4.53-3.44,8.05-4.81,10.57-1.38,2.52-2.52,3.55-3.44,3.09-.23-.23-.58-.57-1.03-1.03-.46-.46-.75-.74-.86-.86Z"/><path class="cls-1" d="m107.95,493.89c-4.81-1.95-7.82-4.87-9.02-8.76-1.2-3.89-1.18-8.22.09-12.97,1.26-4.75,3.44-9.68,6.53-14.78,3.09-5.1,6.53-9.77,10.31-14.01,3.78-4.24,7.59-7.82,11.43-10.74,3.84-2.92,7.13-4.55,9.88-4.9,7.1-.92,12.69-.43,16.75,1.46,4.07,1.89,6.84,4.61,8.33,8.16,1.49,3.55,1.89,7.71,1.2,12.46-.69,4.75-2.21,9.54-4.55,14.35-2.35,4.81-5.39,9.45-9.11,13.92-3.72,4.47-7.85,8.22-12.37,11.26-4.53,3.04-9.31,5.04-14.35,6.01-5.04.97-10.08.49-15.12-1.46Zm-1.89-9.79c.92,3.67,2.86,5.7,5.84,6.1,2.98.4,6.44-.34,10.4-2.23,3.95-1.89,8.1-4.64,12.46-8.25,4.35-3.61,8.33-7.53,11.94-11.77,3.61-4.24,6.59-8.51,8.94-12.8,2.35-4.3,3.49-8.05,3.44-11.26-.06-3.21-1.61-5.64-4.64-7.3-3.04-1.66-8.11-1.98-15.21-.95-1.61,1.49-3.67,3.29-6.19,5.41-2.52,2.12-5.13,4.44-7.82,6.96-2.69,2.52-5.36,5.24-7.99,8.16-2.64,2.92-4.93,5.93-6.87,9.02-1.95,3.09-3.35,6.25-4.21,9.45-.86,3.21-.89,6.36-.09,9.45Z"/><path class="cls-1" d="m269.49,486.76c-.17-1.89-.06-3.78.34-5.67.4-1.89.97-3.72,1.72-5.5.74-1.77,1.46-3.41,2.15-4.9.46-1.14,1.4-3.24,2.84-6.27,1.43-3.03,2.98-6.21,4.64-9.54,1.66-3.32,3.24-6.44,4.73-9.37,1.49-2.92,2.52-4.95,3.09-6.1v-3.78c-1.15-.57-3.5.2-7.05,2.32-3.55,2.12-7.68,5.04-12.37,8.76-4.7,3.72-9.68,7.88-14.95,12.46-5.27,4.58-10.22,8.97-14.86,13.15-4.64,4.18-8.68,7.91-12.12,11.17-3.44,3.27-5.61,5.41-6.53,6.44-2.52.8-4.15.26-4.9-1.63-.75-1.89-.95-4.52-.6-7.9.34-3.38,1.03-7.16,2.06-11.34,1.03-4.18,2.09-8.13,3.18-11.86,1.09-3.72,2.06-6.9,2.92-9.54.86-2.63,1.23-4.06,1.12-4.3-2.29-.8-4.7-.52-7.22.86-2.52,1.38-5.1,3.41-7.73,6.1-2.64,2.69-5.27,5.84-7.91,9.45-2.64,3.61-5.27,7.22-7.9,10.83-2.64,3.61-5.16,7.05-7.56,10.31-2.41,3.26-4.7,5.93-6.87,7.99-2.18,2.06-4.21,3.27-6.1,3.61-1.89.34-3.52-.52-4.9-2.58-.12-.11-.17-.4-.17-.86s.06-.8.17-1.03c.57-1.14,1.46-2.95,2.66-5.41,1.2-2.46,2.55-5.24,4.04-8.33,1.49-3.09,3.09-6.33,4.81-9.71,1.72-3.38,3.35-6.59,4.9-9.62,1.55-3.03,2.92-5.76,4.12-8.16,1.2-2.41,2.15-4.18,2.83-5.33.57-1.14,1.38-2.6,2.41-4.38,1.03-1.77,2.06-3.49,3.09-5.16,1.03-1.66,2.35-3.69,3.95-6.1h4.12c.8,2.64.69,5.1-.34,7.39-1.03,2.29-2.26,4.53-3.7,6.7-1.43,2.18-2.64,4.33-3.61,6.44-.97,2.12-1,4.38-.09,6.79,9.85-8.71,17.44-15.12,22.77-19.25,5.33-4.12,9.08-6.47,11.26-7.05,2.17-.57,3.21.29,3.09,2.58-.12,2.29-.6,5.39-1.46,9.28-.86,3.9-1.72,8.33-2.58,13.32-.86,4.98-.94,9.82-.26,14.52h2.06c.69-.46,1.83-1.32,3.44-2.58,1.6-1.26,3.35-2.63,5.24-4.12,1.89-1.49,3.67-2.86,5.33-4.12,1.66-1.26,2.83-2.12,3.52-2.58,1.26-1.03,3.09-2.46,5.5-4.3,2.41-1.83,4.84-3.69,7.3-5.58,2.46-1.89,4.7-3.55,6.7-4.98,2-1.43,3.29-2.32,3.87-2.66.46-.34,1.46-1.06,3.01-2.15,1.55-1.09,3.26-2.26,5.16-3.52,1.89-1.26,3.69-2.43,5.41-3.52,1.72-1.09,2.98-1.92,3.78-2.49,1.72-1.14,3.32-1.66,4.81-1.55,1.49.12,2.72.66,3.7,1.63.97.98,1.57,2.29,1.8,3.95.23,1.66,0,3.52-.69,5.58-2.75,5.16-5.47,10.2-8.16,15.12-2.69,4.93-5.16,9.88-7.39,14.86-2.23,4.98-4.07,10.11-5.5,15.38-1.43,5.27-2.21,10.89-2.32,16.84-.58.34-1.18.34-1.8,0-.63-.34-1.23-.8-1.8-1.38-.57-.57-1.26-1.43-2.06-2.58-1.26-1.49-1.98-3.18-2.15-5.07Z"/><path class="cls-1" d="m313.14,412.27c0-.11.14-.69.43-1.72.28-1.03.63-2.15,1.03-3.35.4-1.2.83-2.43,1.29-3.69.46-1.26.8-2.23,1.03-2.92,1.72-4.58,3.09-6.87,4.12-6.87s1.72,1.26,2.06,3.78c.34,2.52.37,5.76.09,9.71-.29,3.95-.86,7.62-1.72,11-.86,3.38-1.98,5.99-3.35,7.82-1.38,1.83-3.04,1.78-4.98-.17,0-.46-.03-1.32-.09-2.58-.06-1.26-.09-2.63-.09-4.12s.03-2.86.09-4.12c.06-1.26.09-2.17.09-2.75Z"/><path class="cls-1" d="m335.4,493.89c-1.38-.92-1.4-2.15-.09-3.69,1.32-1.55,3.44-3.21,6.36-4.98,2.92-1.78,6.33-3.64,10.22-5.58,3.89-1.95,7.65-3.78,11.26-5.5,3.61-1.72,6.79-3.24,9.54-4.55,2.75-1.32,4.52-2.32,5.33-3.01,3.78-3.21,5.76-5.87,5.93-7.99.17-2.12-.77-3.84-2.84-5.16-2.06-1.32-4.96-2.35-8.68-3.09-3.72-.74-7.56-1.43-11.51-2.06-3.95-.63-7.73-1.29-11.34-1.98-3.61-.69-6.33-1.6-8.16-2.75-1.83-1.14-2.44-2.66-1.8-4.55.63-1.89,3.12-4.32,7.48-7.3,1.6-1.14,3.95-2.81,7.05-4.98,3.09-2.17,6.44-4.41,10.05-6.7,3.61-2.29,7.19-4.35,10.74-6.19,3.55-1.83,6.53-3.03,8.94-3.61,1.26-.23,2.55-.11,3.87.34,1.32.46,2.38,1.12,3.18,1.98.8.86,1.17,1.8,1.12,2.84-.06,1.03-.83,1.95-2.32,2.75-6.53,3.67-12.8,7.11-18.82,10.31-6.01,3.21-12.06,6.87-18.13,11-.34.92-.26,1.72.26,2.41.52.69,1.12,1.2,1.8,1.55,12.14,1.26,21.28,3.04,27.41,5.33,6.13,2.29,10.02,4.81,11.69,7.56,1.66,2.75,1.46,5.67-.6,8.76-2.06,3.09-5.13,6.13-9.19,9.11-4.07,2.98-8.74,5.79-14.01,8.42-5.27,2.64-10.34,4.87-15.21,6.7-4.87,1.83-9.14,3.21-12.8,4.12-3.67.92-5.9,1.09-6.7.52Z"/><path class="cls-1" d="m470.65,527.58c-.34-.23-.89-.77-1.63-1.63-.74-.86-1.35-1.75-1.8-2.66-.46-.92-.66-1.72-.6-2.41.06-.69.72-1.03,1.98-1.03,2.41,3.32,5.79,4.58,10.14,3.78,4.36-.8,9.05-2.78,14.09-5.93,5.04-3.15,10.17-7.1,15.38-11.86,5.21-4.75,9.91-9.48,14.09-14.18,4.18-4.7,7.62-8.94,10.31-12.72,2.69-3.78,4.04-6.3,4.04-7.56,0-.34-.46-.89-1.37-1.63-.92-.74-1.98-1.52-3.18-2.32-1.2-.8-2.32-1.55-3.35-2.23-1.03-.69-1.66-1.2-1.89-1.55.34-1.14,1.43-2.03,3.26-2.66,1.83-.63,3.89-1.2,6.19-1.72,2.29-.52,4.55-1.03,6.79-1.55,2.23-.51,3.92-1.17,5.07-1.98,6.07-8.82,11.37-16.75,15.9-23.8,4.52-7.05,8.82-13.98,12.89-20.79,4.07-6.82,8.22-13.83,12.46-21.05,4.24-7.22,9.11-15.35,14.61-24.4,1.49-2.52,2.69-3.38,3.61-2.58.92.8,1.6,2.75,2.06,5.84.46,3.09.74,7.02.86,11.77.11,4.75.11,9.88,0,15.38-.12,5.5-.32,11.11-.6,16.84-.29,5.73-.58,11-.86,15.81-.29,4.81-.52,8.96-.69,12.46-.17,3.5-.2,5.76-.09,6.79.46,5.84.77,10.91.95,15.21.17,4.3.71,8.25,1.63,11.86.92,3.61,2.49,7.1,4.73,10.48,2.23,3.38,5.64,7.08,10.22,11.08-3.78,1.26-6.9,1.17-9.37-.26-2.46-1.43-4.47-3.61-6.01-6.53-1.55-2.92-2.81-6.3-3.78-10.14-.97-3.84-1.89-7.56-2.75-11.17-.86-3.61-1.83-6.76-2.92-9.45-1.09-2.69-2.55-4.44-4.38-5.24-.12,0-.43-.03-.95-.09-.52-.06-1.09-.09-1.72-.09s-1.23.03-1.8.09c-.58.06-.97.09-1.2.09-1.03.23-2.95.69-5.76,1.38-2.81.69-5.87,1.43-9.19,2.23-3.32.8-6.5,1.61-9.54,2.41-3.04.8-5.24,1.38-6.62,1.72-2.86.8-5.87,2.64-9.02,5.5-3.15,2.87-6.47,6.33-9.97,10.4-3.5,4.07-7.11,8.51-10.83,13.32-3.72,4.81-7.53,9.51-11.43,14.09-3.9,4.58-7.85,8.82-11.86,12.72-4.01,3.89-8.02,7.05-12.03,9.45-4.01,2.41-8.05,3.75-12.12,4.04-4.06.28-8.05-.89-11.94-3.52Zm93.14-75.61c.23.12.83.17,1.8.17s1.63-.06,1.98-.17c2.06-.34,4.64-.74,7.73-1.2,3.09-.46,6.19-1,9.28-1.63,3.09-.63,5.96-1.38,8.59-2.23,2.63-.86,4.47-1.8,5.5-2.84.69-4.81,1.26-9.08,1.72-12.8.46-3.72.95-7.85,1.46-12.37.52-4.52,1-8.96,1.46-13.32.46-4.35.83-8.39,1.12-12.12.28-3.72.49-6.62.6-8.68-1.26-.57-2.92.89-4.98,4.38-2.06,3.5-4.73,8.28-7.99,14.35-3.27,6.07-7.22,13.15-11.86,21.22-4.64,8.08-10.11,16.47-16.41,25.18v2.06Z"/><path class="cls-1" d="m630.9,493.89c-.23-.11-.2-1.46.09-4.04.28-2.58.71-5.81,1.29-9.71.57-3.89,1.32-8.19,2.23-12.89.92-4.7,1.89-9.19,2.92-13.49s2.15-8.08,3.35-11.34c1.2-3.26,2.38-5.53,3.52-6.79.8-.8,1.6-.83,2.41-.09.8.75,1.6,1.66,2.41,2.75.8,1.09,1.6,2.06,2.41,2.92.8.86,1.66.94,2.58.26,3.21-4.47,6.73-8.73,10.57-12.8,3.84-4.07,8.1-7.59,12.8-10.57.46-.34,1.72-.89,3.78-1.63,2.06-.74,4.41-1.49,7.05-2.23,2.63-.74,5.35-1.38,8.16-1.89,2.81-.51,5.21-.74,7.22-.69,2,.06,3.38.57,4.12,1.55.74.97.37,2.61-1.12,4.9-6.87.12-13.29,2.12-19.25,6.01-5.96,3.9-11.46,8.71-16.5,14.44-5.04,5.73-9.62,11.94-13.75,18.65-4.12,6.7-7.71,12.92-10.74,18.64-3.04,5.73-5.56,10.48-7.56,14.26-2.01,3.78-3.47,5.67-4.38,5.67-.12,0-.63-.26-1.55-.77-.92-.52-1.61-.89-2.06-1.12Z"/><path class="cls-1" d="m721.55,493.89c-.12-.23-.17-.86-.17-1.89s.06-1.72.17-2.06c.34-1.26.97-3.46,1.89-6.62.92-3.15,1.89-6.47,2.92-9.97,1.03-3.49,2-6.79,2.92-9.88.92-3.09,1.55-5.27,1.89-6.53.46-1.6.97-3.46,1.55-5.58.57-2.12.69-4.15.34-6.1-1.72-.23-3.84-.03-6.36.6-2.52.63-5.01,1.15-7.48,1.55-2.46.4-4.75.4-6.87,0-2.12-.4-3.64-1.75-4.55-4.04,1.38-2.86,3.44-4.73,6.19-5.58,2.75-.86,5.73-1.46,8.94-1.8,3.21-.34,6.27-.86,9.19-1.55,2.92-.69,5.24-2.23,6.96-4.64,1.03-2.98,2.26-6.62,3.69-10.91,1.43-4.3,2.95-8.79,4.55-13.49,1.6-4.7,3.35-9.34,5.24-13.92,1.89-4.58,3.87-8.65,5.93-12.2,1.26-.8,2.29-.86,3.09-.17.8.69,1.4,1.69,1.8,3.01.4,1.32.66,2.66.77,4.04.11,1.38.11,2.29,0,2.75-.69,2.98-1.86,6.16-3.52,9.54-1.66,3.38-3.21,6.79-4.64,10.22-1.43,3.44-2.58,6.87-3.44,10.31-.86,3.44-.89,6.7-.09,9.8h36.95c.11,0,.4.37.86,1.12.46.75.86,1.35,1.2,1.8.57,1.61-.06,2.69-1.89,3.27-1.83.57-4.3.94-7.39,1.12-3.09.17-6.62.29-10.57.34-3.95.06-7.73.34-11.34.86-3.61.52-6.85,1.38-9.71,2.58-2.87,1.2-4.81,3.01-5.84,5.41-2.98,7.68-5.73,15.38-8.25,23.11-2.52,7.73-4.93,15.55-7.22,23.46-.23.34-.69.89-1.38,1.63-.69.75-1.43,1.38-2.23,1.89-.8.52-1.58.71-2.32.6-.75-.12-1.35-.8-1.8-2.06Z"/></svg>