<?xml version="1.0" encoding="utf-8"?>
<!-- Generator: Adobe Illustrator 27.4.1, SVG Export Plug-In . SVG Version: 6.00 Build 0)  -->
<svg version="1.1" id="Layer_1" xmlns="http://www.w3.org/2000/svg" xmlns:xlink="http://www.w3.org/1999/xlink" x="0px" y="0px"
	 viewBox="0 0 1000 1000" style="enable-background:new 0 0 1000 1000;" xml:space="preserve">
<style type="text/css">
	.st0{display:none;}
	.st1{display:inline;}
	.st2{font-family:'Orbitron-Regular';}
	.st3{font-size:613.9528px;}
</style>
<g class="st0">
	<text transform="matrix(1 0 0 1 243.3682 573.8018)" class="st1 st2 st3">A</text>
	<text transform="matrix(1 0 0 1 267.0088 805.0103)" class="st1 st2 st3">T</text>
</g>
<g>
	<g>
		<path d="M278.98,573.8V205.43c0-20.46,7.16-37.85,21.49-52.19c14.32-14.32,31.71-21.49,52.19-21.49h294.7
			c20.46,0,37.85,7.17,52.19,21.49c14.32,14.33,21.49,31.72,21.49,52.19V573.8h-49.73V412.33H328.71V573.8H278.98z M328.71,362.6
			h342.59V205.43c0-6.54-2.36-12.17-7.06-16.88c-4.71-4.7-10.34-7.06-16.88-7.06h-294.7c-6.55,0-12.18,2.36-16.88,7.06
			c-4.71,4.71-7.06,10.34-7.06,16.88V362.6z"/>
	</g>
	<g>
		<path d="M475.75,805.01V412.69H279.29v-49.73h442.05v49.73H525.48v392.32H475.75z"/>
	</g>
</g>
</svg>
